<?xml version="1.0" encoding="UTF-8"?><svg id="a" xmlns="http://www.w3.org/2000/svg" viewBox="0 0 315.24 369.13"><defs><style>.b{fill:#ff6122;}</style></defs><path class="b" d="m131.22,226.36c-1.83,0-3.31,0-4.79,0-38.18,0-76.35,0-114.53,0-7.63,0-12.83-4.97-11.76-11.66.39-2.43,1.87-4.88,3.39-6.91,30.58-41.08,61.24-82.09,91.88-123.12,19.66-26.32,39.31-52.64,58.95-78.97,2.85-3.82,6.23-6.54,11.38-5.44,5.98,1.27,8.79,5.08,8.79,12.05.02,34.89,0,69.78,0,104.67,0,1.48,0,2.96,0,5.01,1.72,0,3.17,0,4.61,0,41.17,0,82.34-.04,123.51.09,2.72,0,5.85.63,8.08,2.07,5.58,3.59,5.94,10.6,1.18,16.4-9.92,12.06-19.93,24.04-29.91,36.05-51.63,62.17-103.27,124.34-154.9,186.52-4.47,5.39-8.73,7.14-13.15,5.38-5.46-2.17-7.93-6.9-6.74-13.44,1.76-9.71,3.67-19.39,5.5-29.08,6.08-32.15,12.15-64.3,18.21-96.45.16-.85.17-1.73.3-3.13Z"/></svg>