<?xml version="1.0" encoding="UTF-8"?><svg id="b" xmlns="http://www.w3.org/2000/svg" viewBox="0 0 372.46 371.15"><defs><style>.d{fill:#ff2000;}</style></defs><g id="c"><path class="d" d="m295.23,152.38c13.49,0,26.07-.08,38.65.04,4.47.04,9.06,0,13.37.95,13.96,3.11,23.94,15.31,23.97,29.64.14,52.41.16,104.81,0,157.22-.05,16.89-13.27,29.95-30.43,30.86-1.12.06-2.24.05-3.37.05-101.18,0-202.35,0-303.53,0-16.63,0-29.12-9.07-32.8-24.02-.77-3.11-1.04-6.41-1.04-9.63C-.01,286.96,0,236.43.02,185.89c.01-20.23,13.26-33.49,33.53-33.5,62.25-.03,124.51-.04,186.76.07,3.31,0,5.11-1.08,6.91-3.74,30.34-44.96,60.75-89.88,91.22-134.75,11.31-16.66,33.18-18.72,46.33-4.5,9.26,10.01,10.32,24.71,2.38,36.6-10.46,15.65-21.1,31.19-31.66,46.78-12.52,18.48-25.04,36.96-37.55,55.44-.76,1.12-1.48,2.25-2.7,4.1Zm-77.97,10.75c-1.21-.11-1.71-.19-2.2-.19-61.13,0-122.25-.05-183.38.03-12.27.02-21.08,8.98-21.11,21.49-.1,51.53-.05,103.06-.03,154.59,0,5.01,1.41,9.61,4.6,13.55,4.76,5.88,11.07,8.06,18.48,8.05,77.47-.05,154.94-.03,232.4-.03,24.2,0,48.4.04,72.6-.02,13.12-.03,22.13-8.79,22.14-21.64.05-51.53.05-103.06,0-154.59-.01-12.6-8.81-21.35-21.47-21.43-16.09-.1-32.18.02-48.28-.08-2.28-.01-3.59.78-4.83,2.63-7.4,11.1-14.89,22.14-22.45,33.14-1.1,1.6-2.53,3.15-4.14,4.19-15.22,9.75-30.51,19.38-45.77,29.07-2.24,1.42-4.85,2.61-6.81.49-1.37-1.48-2.3-4.2-2.04-6.2,1.61-12.48,3.29-24.97,5.58-37.34,1.58-8.55.57-17.8,6.7-25.71Zm8.84,5.86c10.47,7.09,20.56,13.92,30.91,20.93,29.42-43.43,58.68-86.63,88.08-130.03-10.4-7.04-20.49-13.87-30.91-20.92-29.41,43.41-58.62,86.53-88.09,130.02Zm124.98-117.77c3.14-4.85,6.47-9.22,8.96-14.02,4.38-8.44,1.15-18.83-6.9-23.82-7.94-4.92-18.46-3.27-24.21,4.08-3.13,4-5.81,8.35-8.86,12.77,10.35,7,20.5,13.88,31,20.99Zm-102.13,145.96c-8.94-6.05-17.48-11.83-26.38-17.86-1.97,13.04-3.82,25.23-5.79,38.25,11.15-7.07,21.43-13.59,32.17-20.39Z"/><path class="d" d="m241.23,263.83c-3.49,0-6.98.05-10.47-.01-7.01-.13-13.25-2.33-19.41-5.81-5.78-3.27-12.15-5.84-18.57-7.57-8.72-2.35-16.83-.11-22.5,7.22-4.78,6.18-8.81,12.95-13.05,19.54-1.88,2.93-3.33,6.14-5.19,9.08-3.6,5.69-6.76,6.88-13.32,5.3-9.5-2.28-15.5-9.94-16.88-20.93-.65-5.17-1.78-10.3-3.05-15.36-.59-2.37-1.79-4.66-3.1-6.76-4.67-7.51-10.83-8.94-17.37-3.11-4.38,3.9-7.91,8.91-11.17,13.85-3.97,6.02-6.99,12.66-10.93,18.7-2.35,3.6-5.37,6.92-8.68,9.66-2.27,1.87-5.47,2.89-8.42,3.6-2.74.66-4.88-.91-5.55-3.76-.71-2.99.47-5.37,3.43-6.11,4.64-1.16,7.58-4.27,9.86-8.05,4.05-6.72,7.75-13.65,11.78-20.38,3.92-6.56,8.4-12.71,14.83-17.11,10.76-7.36,22.47-5.3,30.03,5.37,5.9,8.32,7.72,17.98,8.81,27.83.5,4.54,1.9,8.5,5.91,11.13,2.59,1.7,4.43,1.77,6.26-1.45,4.55-8,9.08-16.09,14.43-23.56,11-15.38,24.44-19.56,42.25-13.31,6.3,2.21,12.12,5.75,18.26,8.45,2.78,1.22,5.78,2.47,8.75,2.67,7.7.51,15.44.48,23.17.61,4.34.07,6.78,1.89,6.77,5.21,0,3.26-2.47,5.23-6.77,5.31-3.37.06-6.73.01-10.1.01,0-.08,0-.15,0-.23Z"/><path class="d" d="m324.6,261.38c0-4.48-.08-8.97.02-13.45.08-3.58,2.02-5.59,5.13-5.6,3.05-.02,5.25,2.04,5.3,5.53.12,9.21.12,18.43,0,27.64-.04,3.44-2.31,5.67-5.22,5.7-3.04.03-5.15-2.31-5.22-6-.08-4.61-.02-9.21-.01-13.82Z"/></g></svg>