<?xml version="1.0" encoding="UTF-8"?><svg id="b" xmlns="http://www.w3.org/2000/svg" viewBox="0 0 409.05 363.79"><defs><style>.d{fill:#ff6122;}</style></defs><g id="c"><path class="d" d="m409.05,131.72c-1.41,7.96-2.4,16.03-4.31,23.87-5.05,20.73-15.19,39.05-27.85,56.02-19.54,26.18-43.3,48.31-67.82,69.64-28.91,25.15-57.97,50.12-87.02,75.11-11.15,9.59-23.14,10.01-33.89.68-37.79-32.77-75.68-65.44-113.02-98.73-19.19-17.11-36.44-36.18-50.49-57.9C-.55,161.48-7.38,119.78,8.59,75.94,23.03,36.29,51.07,10.36,93.17,2.24c43.63-8.41,78.77,7.22,106.67,40.82,1.52,1.83,2.93,3.76,4.79,6.15,1.71-2.18,3.2-4.14,4.75-6.04,16.18-19.8,35.9-34.3,61.13-40.27,43.99-10.42,90.68,7.95,116.09,45.31,12.54,18.45,19.49,38.81,21.73,60.9.14,1.43.48,2.83.72,4.25v18.36Z"/></g></svg>