<?xml version="1.0" encoding="UTF-8"?><svg id="b" xmlns="http://www.w3.org/2000/svg" viewBox="0 0 349.73 349.58"><defs><style>.d{fill:#df22d1;}</style></defs><g id="c"><path class="d" d="m176.84,35.78c63.63-.04,115.53,44.39,125.16,104.88,2.9,18.24,1.63,36.3-3.67,54.02-.45,1.52-1.57,3.22-2.88,3.98-.93.54-3.32.11-3.94-.73-.88-1.19-1.2-3.21-.94-4.74,1.29-7.6,3.55-15.09,4.2-22.73,3.29-38.44-9.25-71.23-37.89-96.9-64.79-58.07-166.77-27.17-189.22,56.92-17.35,64.98,26.29,132.48,92.74,143.09,8.19,1.31,16.62,1.19,24.95,1.55,2.88.13,5.73-.06,6.14,3.75.3,2.83-1.67,4.18-6.04,4.38-59.82,2.72-113.58-38.31-126.49-96.53-15.51-69.99,30.73-137.98,101.74-149.42,6.26-1.01,12.65-1.21,16.14-1.52Z"/><path class="d" d="m297.96,252.42c1.14,1.22,1.95,2.13,2.81,2.99,14.99,15,29.98,30,44.97,45,5.35,5.36,5.33,9.24-.09,14.67-10.22,10.24-20.45,20.48-30.7,30.69-5.06,5.04-9.13,5.06-14.14.06-11.22-11.19-22.41-22.4-33.61-33.6-.53-.53-1.43-1.04-1.48-1.62-.15-1.79-.67-4.3.26-5.24.93-.93,3.74-.9,5.16-.18,1.91.97,3.29,2.99,4.87,4.58,10.47,10.51,20.93,21.04,31.08,31.25,11.35-11.37,22.49-22.53,33.9-33.98-.36-.38-1.25-1.35-2.19-2.28-16.05-16.06-32.11-32.11-48.16-48.16-4.5-4.5-4.29-6.19,1.15-9.71,10.36-6.71,20.72-13.4,31.08-20.12,1.02-.66,2.01-1.39,3.48-2.41-47.64-13.62-94.75-27.08-142.56-40.74,13.65,47.78,27.13,94.99,40.81,142.88,1.11-1.51,1.92-2.54,2.66-3.61,8.77-12.73,17.52-25.47,26.29-38.2.64-.92,1.15-2.31,2.02-2.61,1.58-.55,3.87-1.16,4.96-.42,1.05.71,1.09,3.09,1.3,4.77.07.58-.68,1.29-1.1,1.9-9.61,13.97-19.2,27.95-28.85,41.89-3.36,4.85-8.78,5.99-12.38,2.36-1.56-1.58-2.56-3.96-3.2-6.16-11.86-41.29-23.63-82.6-35.42-123.91-1.4-4.91-2.77-9.83-4.27-14.71-1.1-3.55-1.3-6.89,1.54-9.74,2.83-2.85,6.16-2.62,9.73-1.6,38.67,11.1,77.35,22.14,116.04,33.2,7.67,2.19,15.33,4.38,23.01,6.52,3.72,1.03,6.73,2.78,7.4,6.96.69,4.35-1.74,6.96-5.13,9.13-10.29,6.57-20.53,13.23-31.25,20.15Z"/><path class="d" d="m46.68,86.81c6.2,3.45,6.47,4.83,2.29,10.09-4.27,5.37-8.39,10.86-12.88,16.03-1.16,1.33-3.83,2.67-5.15,2.19-1.33-.49-2.58-3.21-2.6-4.96-.1-7.23.27-14.46.5-21.69.18-5.63,1.96-6.85,7.28-5.04.81.27,1.64.5,2.31.71,4.64-6.95,8.83-14.04,13.8-20.53C79.84,27.59,116.2,6.38,161.32,1.09c82.76-9.69,159.02,46.04,175.05,127.62,4.86,24.75,3.89,49.35-2.8,73.7-.16.6-.37,1.19-.56,1.78-.74,2.35-2.31,3.65-4.77,3.07-2.74-.64-3.38-2.73-2.82-5.23,1-4.5,2.23-8.94,3.12-13.46,15.75-79.82-35.24-158.46-114.61-176.79C149.37-3.13,82.95,25.33,49.17,82.4c-.82,1.39-1.59,2.81-2.5,4.42Z"/><path class="d" d="m87.96,159.59c-.26-46.47,35.17-85.59,80.63-91.14,47.33-5.77,91.7,25.9,101.22,73.48,2.76,13.78,2.22,27.52-1.33,41.13-.13.48-.29.95-.43,1.43-.69,2.47-2.18,4.11-4.86,3.48-2.89-.69-3.41-2.97-2.83-5.6.51-2.31,1.13-4.59,1.56-6.92,8.32-44.54-19.01-86.79-62.99-97.45-49.33-11.95-98.88,23.97-102.7,74.45-3.41,45.17,27.74,83.97,72.52,90.27,3.08.43,6.21.59,9.32.69,2.87.09,5.57.61,5.49,4.08-.07,3.45-2.73,3.93-5.64,3.83-31.92-1.15-56.87-15.06-74.83-41.31-10.31-15.07-15.14-32.17-15.14-50.42Z"/><path class="d" d="m0,200.42c1.09-31.74,15.32-59.43,43.87-79.51.41-.29.83-.55,1.24-.83,2.27-1.6,4.53-1.74,6.17.71,1.55,2.3.57,4.27-1.53,5.76-1.52,1.08-3.13,2.06-4.58,3.22C14.48,154.22,1.89,186,10.69,224.14c8.69,37.66,33.67,60.78,71.36,69.35,18.21,4.14,36.19,1.86,53.46-5.39.46-.19.94-.35,1.38-.57,2.66-1.36,5.5-2.17,7.03,1.19,1.52,3.34-.83,5.11-3.73,6.02-7.82,2.45-15.52,5.64-23.53,7.06-47.27,8.36-93.93-18.83-110.55-64.01-4.08-11.1-5.99-22.6-6.11-37.35Z"/><path class="d" d="m175.38,157.82c-21.42-6.71-26.56-11.75-26.27-25.79.27-13.2,8.2-20.89,26.61-25.53,0-2.1-.04-4.31,0-6.52.05-2.51,1.41-4.09,3.86-4.18,2.5-.09,3.91,1.54,4.08,3.97.16,2.21.03,4.45.03,6.38,3.9,1.42,7.72,2.15,10.77,4.1,3.48,2.23,6.41,5.41,9.31,8.43,1.8,1.87,1.72,4.19-.48,5.87-2.23,1.7-4.31.97-5.81-1.14-3.26-4.6-7.49-7.52-13.74-8.49,0,1.87,0,3.54,0,5.2,0,9.1.13,18.21-.08,27.31-.06,2.73.94,3.61,3.4,4.15,7.26,1.6,14.17,4.22,19.62,9.45,2.47,2.37,4.4,5.36,6.28,8.27,1.41,2.18.96,4.46-1.43,5.75-2.46,1.33-4.38.21-5.56-2.08-4.59-8.89-12.89-11.76-21.83-14-1.02,3.32.89,8.55-4.44,8.29-6.39-.31-2.9-6.23-4.33-9.47Zm.21-42.75c-11.26.79-18.87,8.41-18.53,18.31.33,9.67,7.5,15.76,18.53,15.61v-33.92Z"/><path class="d" d="m31.8,203.43c.36-13.7,4.07-26.29,11.71-37.69,1.57-2.35,3.14-4.85,6.54-3,2.59,1.41,2.57,3.62.13,7.36-21.96,33.56-6.71,77.95,31.18,90.2,5.37,1.74,11.2,2.16,16.85,2.92,2.8.37,5.36.69,5.58,4.15.17,2.65-2.02,4.02-5.96,3.97-32.34-.44-61.38-26.56-65.14-58.62-.36-3.09-.59-6.19-.88-9.29Z"/><path class="d" d="m172.18,212.1c-13-1.76-26.79-8.82-28.28-23.16-.29-2.83-.08-5.53,3.4-5.92,3.46-.38,4.26,1.99,4.54,4.98.6,6.35,4.53,10.42,10.02,12.89,3.25,1.46,6.98,1.85,10.22,3.33,1.41.65,2.97,2.85,2.92,4.3-.05,1.39-2.08,2.72-2.82,3.58Z"/></g></svg>