<?xml version="1.0" encoding="UTF-8"?><svg id="b" xmlns="http://www.w3.org/2000/svg" viewBox="0 0 335.33 324.4"><defs><style>.d{fill:#00b4ff;}</style></defs><g id="c"><path class="d" d="m320.57,43.9c-14.94,8.54-29.1,16.62-43.25,24.72-33.32,19.07-66.67,38.09-99.93,57.27-7.45,4.29-14.37,4.22-21.84-.06C109.18,99.21,62.7,72.76,16.25,46.26c-1.17-.67-2.36-1.29-3.97-2.16-.12,1.41-.28,2.44-.28,3.47-.01,58.89-.02,117.79,0,176.68,0,8.48,4.72,13.2,13.23,13.21,22.21.03,44.43,0,66.64.01,1.25,0,2.51-.07,3.74.09,3.17.4,4.98,2.39,5.23,5.43.24,2.9-1.22,5.11-4.07,5.98-1.39.43-2.94.45-4.42.45-22.21.03-44.43.03-66.64.01C9.92,249.44.01,239.53,0,223.74,0,157.74,0,91.73,0,25.73.01,9.79,9.7.02,25.6.02,119.32,0,213.04,0,306.76.01c16.18,0,25.79,9.68,25.79,25.89.01,55.77,0,111.55,0,167.32,0,1.12.08,2.26-.09,3.36-.46,2.92-2.17,4.75-5.15,5.08-3.13.35-5.4-1.06-6.31-4.07-.45-1.51-.41-3.2-.41-4.8-.02-47.91-.02-95.83-.02-143.74,0-1.46,0-2.93,0-5.16ZM166.3,11.98c-46.29,0-92.58,0-138.86,0-1.5,0-3-.03-4.49.08-5.09.37-9.21,3.76-10.59,8.63-1.41,4.96-.48,9.31,2.34,10.92,48.71,27.78,97.46,55.51,146.09,83.43,4.3,2.47,7.59,2.3,11.7-.14,12.43-7.39,25.05-14.44,37.59-21.62,35.7-20.42,71.4-40.84,107.07-61.29,1.23-.71,3.14-1.72,3.22-2.7.36-4.56.82-9.24-2.6-13.16-3-3.43-6.81-4.18-11.12-4.18-46.79.05-93.57.03-140.36.03Z"/><path class="d" d="m195.45,324.4c-14.41-.67-24.19-14.1-19.78-27.87,4.78-14.94,9.64-29.86,14.93-44.62,2.11-5.87,2.11-11.09,0-16.96-5.24-14.65-10.02-29.47-14.81-44.28-4.35-13.44,3.98-26.39,17.98-27.49,3.66-.29,7.84.59,11.14,2.22,39.53,19.53,78.94,39.3,118.37,59.03,7.7,3.85,11.98,10.21,12.06,18.78.08,8.74-4.18,15.25-12.02,19.17-39.43,19.75-78.86,39.48-118.36,59.09-2.93,1.46-6.33,1.97-9.51,2.93Zm8.51-74.95c-5.6,16.77-11.1,33.31-16.67,49.82-1.38,4.08-.92,7.72,2.43,10.53,3.36,2.83,7.03,2.49,10.83.59,38.88-19.47,77.78-38.91,116.7-58.32,3.62-1.81,6.17-4.28,6.23-8.53.06-4.44-2.61-6.98-6.34-8.84-38.81-19.36-77.61-38.75-116.4-58.18-3.92-1.96-7.68-2.34-11.13.7-3.45,3.03-3.55,6.8-2.14,10.95,5.2,15.33,10.37,30.67,15.36,46.07.86,2.66,2.12,3.32,4.74,3.3,12.23-.13,24.46-.06,36.69-.06,3.74,0,7.49-.1,11.23.09,3.16.16,5.07,2.11,5.4,5.21.35,3.3-1.31,5.53-4.5,6.39-1.29.35-2.72.27-4.09.27-15.97.02-31.93.01-48.34.01Z"/><path class="d" d="m141.29,237.48c6.11,0,12.22-.04,18.34.01,4.26.04,6.72,2.21,6.79,5.8.07,3.74-2.48,6.12-6.89,6.14-12.22.06-24.45.05-36.67,0-4.42-.02-7-2.36-6.98-6.06.02-3.68,2.57-5.85,7.08-5.88,6.11-.04,12.22-.01,18.34,0Z"/><path class="d" d="m147.82,198.59c4.11,0,8.21-.07,12.32.02,3.91.09,6.27,2.38,6.28,5.89.01,3.47-2.36,5.96-6.21,6.02-8.33.12-16.67.11-25.01,0-3.82-.05-6.32-2.58-6.34-5.95-.02-3.54,2.54-5.89,6.64-5.96,4.1-.07,8.21-.01,12.32-.01Z"/><path class="d" d="m147.63,276.42c4.23,0,8.46-.07,12.69.02,3.67.08,6,2.35,6.1,5.67.1,3.34-2.08,6.08-5.66,6.16-8.7.2-17.41.19-26.12,0-3.51-.08-5.87-2.9-5.79-6.1.08-3.38,2.59-5.67,6.46-5.74,4.1-.07,8.21-.02,12.31-.01Z"/></g></svg>