<?xml version="1.0" encoding="UTF-8"?><svg id="b" xmlns="http://www.w3.org/2000/svg" viewBox="0 0 39.87 38.18"><defs><style>.d{fill:#ff6122;}</style></defs><g id="c"><path class="d" d="m39.87,15.65c-.18.9-.74,1.53-1.38,2.15-2.08,2.01-4.14,4.04-6.23,6.05-.51.49-.69,1.01-.56,1.71.54,3.05,1.06,6.1,1.58,9.16.2,1.18-.13,2.17-1.1,2.89-.96.71-2.02.77-3.08.21-2.77-1.44-5.54-2.89-8.29-4.36-.61-.33-1.15-.32-1.76,0-2.73,1.46-5.48,2.89-8.22,4.33-1.57.82-3.31.27-4.03-1.25-.27-.57-.32-1.17-.22-1.78.53-3.06,1.04-6.13,1.59-9.19.12-.7-.06-1.22-.57-1.71-2.22-2.13-4.41-4.28-6.61-6.43C.01,16.45-.26,15.27.25,14.12c.44-1.01,1.25-1.56,2.33-1.72,3.1-.45,6.21-.9,9.31-1.34.61-.09,1.01-.38,1.28-.94,1.36-2.79,2.75-5.58,4.12-8.37C17.81.68,18.63.04,19.84,0c1.26-.04,2.15.56,2.71,1.67.8,1.6,1.58,3.21,2.37,4.81.6,1.21,1.21,2.41,1.78,3.63.28.59.72.87,1.35.95,3.09.43,6.19.88,9.27,1.34,1.31.2,2.15.95,2.47,2.26.01.05.05.09.07.13v.86Z"/></g></svg>