<?xml version="1.0" encoding="UTF-8"?><svg id="b" xmlns="http://www.w3.org/2000/svg" viewBox="0 0 383.18 376.74"><defs><style>.d{fill:#febd5d;}</style></defs><g id="c"><path class="d" d="m0,97.79c26.3-26.43,52.59-52.86,78.56-78.96,26.71,26.7,53.04,53.01,79.07,79.04-25.86,25.85-52.2,52.18-78.76,78.72-.49-.46-1.49-1.36-2.44-2.31C52,149.85,27.57,125.41,3.12,101,2.19,100.07,1.05,99.35,0,98.54c0-.25,0-.5,0-.75Zm18.17-.14c20.44,20.44,41.11,41.11,61.42,61.42,20.29-20.29,40.89-40.89,61.07-61.06-20.43-20.43-41.08-41.08-61.43-61.43-20.27,20.27-40.88,40.88-61.06,61.06Z"/><path class="d" d="m232.01,376.74c-46.36-12.57-91.86-24.91-136.89-37.13,33.17-33.18,66.43-66.44,99.67-99.7,12.24,44.98,24.61,90.47,37.22,136.82Zm-43.29-113.15c-23.36,23.41-46.7,46.81-69.8,69.96,31.25,8.47,63.27,17.15,95.91,26-8.91-32.74-17.62-64.76-26.11-95.96Z"/><path class="d" d="m363.24,72.09c3.06-2.18,6.16-4.39,9.25-6.59,13.93,17.39,15.92,48.38-4.11,70.29-19.6,21.44-52.69,24.31-75.62,6.51-23.15-17.97-28.82-50.35-13.02-74.78,16.42-25.39,47.61-31.47,69.55-20.96-1.5,3.46-3.01,6.95-4.66,10.73-12.82-5.08-25.41-4.98-37.66,1.29-9.2,4.71-15.93,11.87-20.2,21.29-8.4,18.54-2.72,40.58,13.61,53.01,16.31,12.41,39.05,11.95,54.7-1.1,17.48-14.59,20.35-35.1,8.16-59.67Z"/><path class="d" d="m245.51,290.17c.21-3.52.42-7.22.67-11.33,22.66.42,41.26-8.37,56.35-24.8,13.45-14.66,21.07-32.12,24.55-52.46-9.95,5.49-19.33,10.67-29.1,16.07-1.89-3.37-3.75-6.69-5.88-10.49,14.77-8.2,29.41-16.34,44.35-24.64,8.42,13.36,16.7,26.51,25.14,39.89-3.41,2.16-6.65,4.22-10.18,6.46-4.26-6.73-8.43-13.32-13.09-20.69-.63,2.48-1.04,4.21-1.49,5.92-7.7,29.11-23.15,52.51-50.01,67.34-11.57,6.39-24.1,9.35-37.31,9.41-1,0-1.99-.07-2.99-.14-.22-.02-.43-.21-1-.52Z"/><path class="d" d="m165.65,38.7c10.58,2.42,20.99,4.8,31.85,7.29-.88,3.9-1.7,7.59-2.63,11.72-16.49-3.73-32.71-7.4-49.46-11.18,2.64-15.51,5.26-30.88,7.93-46.53,4.12.69,7.77,1.29,11.83,1.97-1.31,8-2.59,15.77-3.98,24.21C185.41,9.1,211.31.43,240.48,4.5c17.13,2.39,32.09,9.61,44.68,21.96-2.94,2.6-5.79,5.12-8.95,7.92-17.03-15.92-38.2-21.24-61.76-17.98-17.6,2.43-39.82,12.71-48.8,22.3Z"/><path class="d" d="m28.38,183.61c3.55,1.58,6.93,3.08,10.66,4.74-9.73,24.25-6.15,47.14,7.11,68.91,8.45,13.88,25.87,30.23,35.8,33.65-1.47-10.77-2.9-21.29-4.38-32.17,4.13-.57,7.88-1.09,11.89-1.65,2.37,16.8,4.67,33.19,7.07,50.21-15.32,3.02-30.62,6.04-46.3,9.13-.81-3.95-1.58-7.69-2.42-11.79,7.94-1.6,15.7-3.16,23.62-4.75-5.69-4.62-11.44-8.76-16.59-13.54-17.93-16.65-29.65-36.77-32.75-61.34-1.7-13.47-.07-26.61,5.14-39.22.27-.66.66-1.27,1.14-2.17Z"/><path class="d" d="m351.44,60.82c2.18-3.31,4.27-6.49,6.61-10.05,3.05,2.51,5.76,4.74,8.62,7.1-3.09,3.01-5.82,5.66-8.67,8.43-2.05-1.71-4.22-3.52-6.57-5.48Z"/></g></svg>